<?xml version="1.0" encoding="UTF-8" standalone="no"?>
<svg width="28px" height="24px" viewBox="0 0 28 24" version="1.1" 
    xmlns="http://www.w3.org/2000/svg" 
    xmlns:xlink="http://www.w3.org/1999/xlink">
    <!-- Generator: sketchtool 42 (36781) - http://www.bohemiancoding.com/sketch -->
    <title>76F585B1-587B-4EE1-9ABF-F05B9FBAFEA2</title>
    <desc>Created with sketchtool.</desc>
    <defs></defs>
    <g id="Symbols" stroke="none" stroke-width="1" fill="none" fill-rule="evenodd">
        <g id="menu/white" transform="translate(-40.000000, -38.000000)" fill="#FFFFFF">
            <g id="logo/white" transform="translate(40.000000, 38.000000)">
                <path d="M27.8589698,10.6414921 L27.8589698,3.48740218 C27.8589698,1.58811263 26.2104821,0.0486129294 24.1773425,0.0486129294 L3.68169899,0.0486129294 C1.64820121,0.0486129294 0,1.58811263 0,3.48740218 L0,19.6488992 C0,21.5481887 1.64820121,23.0877562 3.68169899,23.0877562 L19.2851002,23.0877562 C21.3186696,23.0877562 23.0253924,21.5481887 23.0253924,19.6489669 C23.0253924,18.7612054 23.0049062,16.1737518 23.0049062,16.1737518 L27.1370849,12.2860039 C27.6057586,11.84192 27.8589698,11.3146932 27.8589698,10.6414921 M20.9156089,3.77373098 C20.9156089,4.35485184 20.5737199,4.86048047 20.0700909,5.12101327 L20.0699477,8.32337307 C20.0699477,8.52310585 19.9840636,8.70428719 19.844672,8.83604312 L17.1607759,11.3778629 C17.0189489,11.5120562 16.8221103,11.595267 16.6042841,11.595267 L10.9468209,11.5957409 C10.9352885,11.6230264 10.9238278,11.645234 10.9130833,11.662499 C10.590033,12.3482934 9.86284748,12.8265688 9.01725795,12.8265688 C7.87218431,12.8265688 6.94336097,11.9488278 6.94336097,10.8661407 C6.94336097,9.7834536 7.87218431,8.90571263 9.01725795,8.90571263 C9.86256097,8.90571263 10.5898897,9.38385261 10.9130833,10.0695793 C10.9235412,10.0866412 10.9345006,10.1083071 10.9459614,10.135051 L16.2772225,10.135051 L18.5065561,8.0239093 L18.5069143,5.11701861 C18.0072249,4.85553793 17.6690608,4.35200818 17.6690608,3.77373098 C17.6690608,2.92632231 18.3958881,2.23924152 19.2926213,2.23924152 C20.1888531,2.23924152 20.9156089,2.92632231 20.9156089,3.77373098 M25.7791992,3.77088733 C25.7791992,4.35072177 25.4477682,4.85763681 24.9490101,5.11972685 L24.9385521,10.1917887 C24.9385521,10.3914537 24.8521666,10.5727028 24.7132765,10.7045941 L20.1061924,15.06405 L20.1102036,17.9633576 C20.6120419,18.2246352 20.9492032,18.7310086 20.9492032,19.3130096 C20.9492032,20.1625171 20.2238085,20.8512229 19.329439,20.8512229 C18.4350696,20.8512229 17.710033,20.1625171 17.710033,19.3130096 C17.710033,18.7329043 18.0484837,18.2291715 18.5479581,17.9672845 L18.5425143,14.76418 C18.5425143,14.5645826 18.6283984,14.3837398 18.7668588,14.2518484 L23.3750889,9.8923926 L23.3759485,5.11965915 C22.8564893,4.86020964 22.540029,4.35749237 22.540029,3.77088733 C22.540029,2.92144748 23.2651372,2.23274174 24.1595783,2.23274174 C25.0539477,2.23274174 25.7791992,2.92144748 25.7791992,3.77088733 M9.83963944,10.8661407 C9.83963944,10.4418947 9.471534,10.0979481 9.01725795,10.0979481 C8.56298189,10.0979481 8.19494809,10.4418947 8.19494809,10.8661407 C8.19494809,11.2904544 8.56298189,11.6343333 9.01725795,11.6343333 C9.471534,11.6343333 9.83963944,11.2904544 9.83963944,10.8661407" id="Fill-16"></path>
            </g>
        </g>
    </g>
</svg>
